<svg xmlns="http://www.w3.org/2000/svg" width="284" height="16" fill="none" viewBox="0 0 284 16"><path fill="#000" d="M0 9h1V8H0v1zM4 12h1v-1H4v1zM6 8h1V7H6v1zM8 11h1v-1H8v1zM26 6h1V5h-1v1zM30 9h1V8h-1v1zM32 5h1V4h-1v1zM34 8h1V7h-1v1zM10 5h1V4h-1v1zM10 9h1V8h-1v1zM16 6h1V5h-1v1zM16 10h1V9h-1v1zM14 12h1v-1h-1v1zM14 16h1v-1h-1v1zM12 1h1V0h-1v1zM8 15h1v-1H8v1zM10 16h1v-1h-1v1zM32 15h1v-1h-1v1zM34 16h1v-1h-1v1zM2 15h1v-1H2v1zM22 12h1v-1h-1v1zM26 11h1v-1h-1v1zM20 15h1v-1h-1v1zM2 3h1V2H2v1zM22 5h1V4h-1v1zM14 3h1V2h-1v1zM18 1h1V0h-1v1zM34 1h1V0h-1v1zM26 2h1V1h-1v1zM36 9h1V8h-1v1zM40 12h1v-1h-1v1zM42 8h1V7h-1v1zM44 11h1v-1h-1v1zM62 6h1V5h-1v1zM66 9h1V8h-1v1zM68 5h1V4h-1v1zM70 8h1V7h-1v1zM46 5h1V4h-1v1zM46 9h1V8h-1v1zM52 6h1V5h-1v1zM52 10h1V9h-1v1zM50 12h1v-1h-1v1zM50 16h1v-1h-1v1zM48 1h1V0h-1v1zM44 15h1v-1h-1v1zM46 16h1v-1h-1v1zM68 15h1v-1h-1v1zM70 16h1v-1h-1v1zM38 15h1v-1h-1v1zM58 12h1v-1h-1v1zM62 11h1v-1h-1v1zM56 15h1v-1h-1v1zM38 3h1V2h-1v1zM58 5h1V4h-1v1zM50 3h1V2h-1v1zM54 1h1V0h-1v1zM70 1h1V0h-1v1zM62 2h1V1h-1v1z"/><path fill="#000" d="M70 7h1v1h-1V7zM74 4h1v1h-1V4zM76 8h1v1h-1V8zM78 5h1v1h-1V5zM96 10h1v1h-1v-1zM100 7h1v1h-1V7zM102 11h1v1h-1v-1zM104 8h1v1h-1V8zM80 11h1v1h-1v-1zM80 7h1v1h-1V7zM86 10h1v1h-1v-1zM86 6h1v1h-1V6zM84 4h1v1h-1V4zM84 0h1v1h-1V0zM82 15h1v1h-1v-1zM78 1h1v1h-1V1zM80 0h1v1h-1V0zM102 1h1v1h-1V1zM104 0h1v1h-1V0zM72 1h1v1h-1V1zM92 4h1v1h-1V4zM96 5h1v1h-1V5zM90 1h1v1h-1V1zM72 13h1v1h-1v-1zM92 11h1v1h-1v-1zM84 13h1v1h-1v-1zM88 15h1v1h-1v-1zM104 15h1v1h-1v-1zM96 14h1v1h-1v-1zM106 7h1v1h-1V7zM110 4h1v1h-1V4zM112 8h1v1h-1V8zM114 5h1v1h-1V5zM132 10h1v1h-1v-1zM136 7h1v1h-1V7zM138 11h1v1h-1v-1zM140 8h1v1h-1V8zM116 11h1v1h-1v-1zM116 7h1v1h-1V7zM122 10h1v1h-1v-1zM122 6h1v1h-1V6zM120 4h1v1h-1V4zM120 0h1v1h-1V0zM118 15h1v1h-1v-1zM114 1h1v1h-1V1zM116 0h1v1h-1V0zM138 1h1v1h-1V1zM140 0h1v1h-1V0zM108 1h1v1h-1V1zM128 4h1v1h-1V4zM132 5h1v1h-1V5zM126 1h1v1h-1V1zM108 13h1v1h-1v-1zM128 11h1v1h-1v-1zM120 13h1v1h-1v-1zM124 15h1v1h-1v-1zM140 15h1v1h-1v-1zM132 14h1v1h-1v-1zM143 7h1v1h-1V7zM147 4h1v1h-1V4zM149 8h1v1h-1V8zM151 5h1v1h-1V5zM169 10h1v1h-1v-1zM173 7h1v1h-1V7zM175 11h1v1h-1v-1zM177 8h1v1h-1V8zM153 11h1v1h-1v-1zM153 7h1v1h-1V7zM159 10h1v1h-1v-1zM159 6h1v1h-1V6zM157 4h1v1h-1V4zM157 0h1v1h-1V0zM155 15h1v1h-1v-1zM151 1h1v1h-1V1zM153 0h1v1h-1V0zM175 1h1v1h-1V1zM177 0h1v1h-1V0zM145 1h1v1h-1V1zM165 4h1v1h-1V4zM169 5h1v1h-1V5zM163 1h1v1h-1V1zM145 13h1v1h-1v-1zM165 11h1v1h-1v-1zM157 13h1v1h-1v-1zM161 15h1v1h-1v-1zM177 15h1v1h-1v-1zM169 14h1v1h-1v-1zM179 7h1v1h-1V7zM183 4h1v1h-1V4zM185 8h1v1h-1V8zM187 5h1v1h-1V5zM205 10h1v1h-1v-1zM209 7h1v1h-1V7zM211 11h1v1h-1v-1zM213 8h1v1h-1V8zM189 11h1v1h-1v-1zM189 7h1v1h-1V7zM195 10h1v1h-1v-1zM195 6h1v1h-1V6zM193 4h1v1h-1V4zM193 0h1v1h-1V0zM191 15h1v1h-1v-1zM187 1h1v1h-1V1zM189 0h1v1h-1V0zM211 1h1v1h-1V1zM213 0h1v1h-1V0zM181 1h1v1h-1V1zM201 4h1v1h-1V4zM205 5h1v1h-1V5zM199 1h1v1h-1V1zM181 13h1v1h-1v-1zM201 11h1v1h-1v-1zM193 13h1v1h-1v-1zM197 15h1v1h-1v-1zM213 15h1v1h-1v-1zM205 14h1v1h-1v-1zM284 7h-1v1h1V7zM280 4h-1v1h1V4zM278 8h-1v1h1V8zM276 5h-1v1h1V5zM258 10h-1v1h1v-1zM254 7h-1v1h1V7zM252 11h-1v1h1v-1zM250 8h-1v1h1V8zM274 11h-1v1h1v-1zM274 7h-1v1h1V7zM268 10h-1v1h1v-1zM268 6h-1v1h1V6zM270 4h-1v1h1V4zM270 0h-1v1h1V0zM272 15h-1v1h1v-1zM276 1h-1v1h1V1zM274 0h-1v1h1V0zM252 1h-1v1h1V1zM250 0h-1v1h1V0zM282 1h-1v1h1V1zM262 4h-1v1h1V4zM258 5h-1v1h1V5zM264 1h-1v1h1V1zM282 13h-1v1h1v-1zM262 11h-1v1h1v-1zM270 13h-1v1h1v-1zM266 15h-1v1h1v-1zM250 15h-1v1h1v-1zM258 14h-1v1h1v-1zM248 7h-1v1h1V7zM244 4h-1v1h1V4zM242 8h-1v1h1V8zM240 5h-1v1h1V5zM222 10h-1v1h1v-1zM218 7h-1v1h1V7zM216 11h-1v1h1v-1z"/><path fill="#000" d="M214 8h-1v1h1V8zM238 11h-1v1h1v-1zM238 7h-1v1h1V7zM232 10h-1v1h1v-1zM232 6h-1v1h1V6zM234 4h-1v1h1V4zM234 0h-1v1h1V0zM236 15h-1v1h1v-1zM240 1h-1v1h1V1zM238 0h-1v1h1V0zM216 1h-1v1h1V1zM214 0h-1v1h1V0zM246 1h-1v1h1V1zM226 4h-1v1h1V4zM222 5h-1v1h1V5zM228 1h-1v1h1V1zM246 13h-1v1h1v-1zM226 11h-1v1h1v-1zM234 13h-1v1h1v-1zM230 15h-1v1h1v-1zM214 15h-1v1h1v-1zM222 14h-1v1h1v-1z"/></svg>